<svg xmlns="http://www.w3.org/2000/svg" viewBox="0 0 200 200" width="200" height="200">
    <defs>
      <linearGradient id="canMetalP" x1="0%" y1="0%" x2="100%" y2="0%">
        <stop offset="0%" stop-color="#94a3b8"/>
        <stop offset="50%" stop-color="#f1f5f9"/>
        <stop offset="100%" stop-color="#64748b"/>
      </linearGradient>
      <linearGradient id="pepsiBody" x1="0%" y1="0%" x2="100%" y2="0%">
        <stop offset="0%" stop-color="#002b66"/>
        <stop offset="25%" stop-color="#004b99"/>
        <stop offset="60%" stop-color="#0066cc"/>
        <stop offset="100%" stop-color="#00204d"/>
      </linearGradient>
      <filter id="pepsiShadow" x="-20%" y="-20%" width="140%" height="140%">
        <feDropShadow dx="0" dy="6" stdDeviation="10" flood-color="#0055b8" flood-opacity="0.5"/>
      </filter>
    </defs>
    <circle cx="100" cy="100" r="88" fill="rgba(0, 75, 180, 0.16)" filter="url(#pepsiShadow)"/>
    <ellipse cx="100" cy="32" rx="38" ry="8" fill="url(#canMetalP)"/>
    <ellipse cx="100" cy="31" rx="34" ry="6" fill="#cbd5e1"/>
    <rect x="96" y="28" width="8" height="5" rx="2" fill="#64748b"/>
    <path d="M62 32 L62 160 Q62 172 74 174 L126 174 Q138 172 138 160 L138 32 Z" fill="url(#pepsiBody)" filter="url(#pepsiShadow)"/>
    <ellipse cx="100" cy="168" rx="34" ry="5" fill="url(#canMetalP)" opacity="0.7"/>
    <g transform="translate(100, 96)">
      <path d="M-26,-4 C-20,-24 20,-24 26,-4 C16,-12 -4,-4 -26,-4 Z" fill="#e11d48"/>
      <path d="M-26,-3 C-10,-3 6,-14 26,-3 C16,7 -4,1 -26,-3 Z" fill="#ffffff"/>
      <path d="M-26,-2 C-6,3 10,9 26,-2 C20,20 -20,20 -26,-2 Z" fill="#0284c7"/>
    </g>
    <text x="100" y="132" font-family="sans-serif" font-size="18" font-weight="900" fill="#ffffff" text-anchor="middle" letter-spacing="-1">pepsi</text>
    <circle cx="75" cy="65" r="2" fill="#ffffff" opacity="0.6"/>
    <circle cx="124" cy="80" r="2.5" fill="#ffffff" opacity="0.5"/>
    <circle cx="78" cy="145" r="1.8" fill="#ffffff" opacity="0.7"/>
    <circle cx="120" cy="140" r="2" fill="#ffffff" opacity="0.6"/>
    <rect x="68" y="34" width="7" height="132" fill="#ffffff" opacity="0.35" rx="3"/>
  </svg>