<svg xmlns="http://www.w3.org/2000/svg" viewBox="0 0 200 200" width="200" height="200">
    <defs>
      <linearGradient id="twistBody" x1="0%" y1="0%" x2="100%" y2="0%">
        <stop offset="0%" stop-color="#065f46"/>
        <stop offset="25%" stop-color="#0d9488"/>
        <stop offset="65%" stop-color="#14b8a6"/>
        <stop offset="100%" stop-color="#042f2e"/>
      </linearGradient>
      <linearGradient id="twistWave" x1="0%" y1="0%" x2="100%" y2="100%">
        <stop offset="0%" stop-color="#a3e635"/>
        <stop offset="50%" stop-color="#38bdf8"/>
        <stop offset="100%" stop-color="#fbbf24"/>
      </linearGradient>
      <filter id="twistGlow" x="-20%" y="-20%" width="140%" height="140%">
        <feDropShadow dx="0" dy="6" stdDeviation="10" flood-color="#14b8a6" flood-opacity="0.55"/>
      </filter>
    </defs>
    <circle cx="100" cy="100" r="88" fill="rgba(20, 184, 166, 0.16)" filter="url(#twistGlow)"/>
    <ellipse cx="100" cy="32" rx="38" ry="8" fill="#94a3b8"/>
    <ellipse cx="100" cy="31" rx="34" ry="6" fill="#f1f5f9"/>
    <path d="M62 32 L62 160 Q62 172 74 174 L126 174 Q138 172 138 160 L138 32 Z" fill="url(#twistBody)" filter="url(#twistGlow)"/>
    <path d="M62 70 Q100 110 138 80 Q100 135 62 120 Z" fill="url(#twistWave)" opacity="0.9"/>
    <text x="100" y="105" font-family="Arial Black, Impact, sans-serif" font-size="20" font-weight="900" fill="#ffffff" text-anchor="middle" letter-spacing="1">TWIST</text>
    <text x="100" y="142" font-family="Arial, sans-serif" font-size="7.5" font-weight="800" fill="#a3e635" text-anchor="middle">SPARKLING SODA • تويست</text>
    <circle cx="80" cy="52" r="2.5" fill="#ffffff" opacity="0.6"/>
    <circle cx="122" cy="62" r="3" fill="#a3e635" opacity="0.7"/>
    <circle cx="76" cy="146" r="2" fill="#ffffff" opacity="0.6"/>
    <rect x="68" y="34" width="7" height="132" fill="#ffffff" opacity="0.35" rx="3"/>
  </svg>